<svg xmlns="http://www.w3.org/2000/svg" viewBox="0 0 410 404"><defs><linearGradient id="a" x1="-37.5%" x2="121.5%" y1="0%" y2="100%"><stop stop-color="#41d1ff" offset="0"/><stop stop-color="#bd34fe" offset="1"/></linearGradient><linearGradient id="b" x1="-18.75%" x2="111.25%" y1="0%" y2="100%"><stop stop-color="#ffea83" offset="0"/><stop stop-color="#ffa800" offset="0.083"/><stop stop-color="#ff9a44" offset="0.17"/><stop stop-color="#ff6f45" offset="0.25"/><stop stop-color="#ff3d68" offset="0.33"/><stop stop-color="#ff2975" offset="0.42"/><stop stop-color="#ff4d8d" offset="0.5"/><stop stop-color="#a509ff" offset="0.58"/><stop stop-color="#0f68f9" offset="0.67"/><stop stop-color="#2c8ff7" offset="0.75"/><stop stop-color="#2dd4bf" offset="0.92"/><stop stop-color="#a6ffcb" offset="1"/></linearGradient></defs><path fill="url(#a)" d="M399.641 59.525 215.33 388.74c-5.964 10.984-21.78 11.062-27.867.138L10.46 59.529C4.022 48.387 12.918 34.3 25.98 35.06L205 45l179.019-9.94c13.062-.759 21.958 13.327 15.52 24.465Z"/><path fill="url(#b)" d="M292.85 0 156.29 146.34l-3.3-89.76c-.36-9.81-11.95-14.5-18.9-7.35l-76.72 79.54c-5.96 6.17-5.06 16.29 1.91 21.56l113.05 86.86c6.26 4.8 15.34 3.35 19.86-3.22L315.53 29.6C321.22 21.23 312.32 10.64 302 13.2l-87.29 22.55 61.4-66.1c6.82-7.33 19.11-2.76 19.73 7.45Z"/></svg>
